%TF.GenerationSoftware,KiCad,Pcbnew,9.0.0*%
%TF.CreationDate,2025-07-29T16:03:53+03:00*%
%TF.ProjectId,f103c6t6,66313033-6336-4743-962e-6b696361645f,rev?*%
%TF.SameCoordinates,Original*%
%TF.FileFunction,Copper,L1,Top*%
%TF.FilePolarity,Positive*%
%FSLAX46Y46*%
G04 Gerber Fmt 4.6, Leading zero omitted, Abs format (unit mm)*
G04 Created by KiCad (PCBNEW 9.0.0) date 2025-07-29 16:03:53*
%MOMM*%
%LPD*%
G01*
G04 APERTURE LIST*
%TA.AperFunction,ComponentPad*%
%ADD10R,2.000000X2.000000*%
%TD*%
%TA.AperFunction,ComponentPad*%
%ADD11C,2.000000*%
%TD*%
%TA.AperFunction,ComponentPad*%
%ADD12R,1.700000X2.000000*%
%TD*%
%TA.AperFunction,ComponentPad*%
%ADD13O,1.700000X2.000000*%
%TD*%
%TA.AperFunction,ComponentPad*%
%ADD14R,1.600000X1.600000*%
%TD*%
%TA.AperFunction,ComponentPad*%
%ADD15C,1.600000*%
%TD*%
%TA.AperFunction,ComponentPad*%
%ADD16R,1.700000X1.700000*%
%TD*%
%TA.AperFunction,ComponentPad*%
%ADD17C,1.700000*%
%TD*%
%TA.AperFunction,ViaPad*%
%ADD18C,1.800000*%
%TD*%
%TA.AperFunction,Conductor*%
%ADD19C,0.800000*%
%TD*%
G04 APERTURE END LIST*
D10*
%TO.P,J3,1*%
%TO.N,+3.3V*%
X161996300Y-81532700D03*
D11*
%TO.P,J3,2*%
%TO.N,Net-(J3-Pin_2)*%
X161996300Y-84072700D03*
%TO.P,J3,3*%
%TO.N,Net-(J3-Pin_3)*%
X161996300Y-86612700D03*
%TO.P,J3,4*%
%TO.N,Net-(J3-Pin_4)*%
X161996300Y-89152700D03*
%TO.P,J3,5*%
%TO.N,Net-(J3-Pin_5)*%
X161996300Y-91692700D03*
%TO.P,J3,6*%
%TO.N,GNDREF*%
X161996300Y-94232700D03*
%TD*%
D12*
%TO.P,J1,1*%
%TO.N,Net-(J1-Pin_1)*%
X155346300Y-96470900D03*
D13*
%TO.P,J1,2*%
%TO.N,Net-(J1-Pin_2)*%
X155346300Y-99010900D03*
%TO.P,J1,3*%
%TO.N,Net-(J1-Pin_3)*%
X152806300Y-96470900D03*
%TO.P,J1,4*%
%TO.N,Net-(J1-Pin_4)*%
X152806300Y-99010900D03*
%TO.P,J1,5*%
%TO.N,Net-(J1-Pin_5)*%
X150266300Y-96470900D03*
%TO.P,J1,6*%
%TO.N,Net-(J1-Pin_6)*%
X150266300Y-99010900D03*
%TO.P,J1,7*%
%TO.N,Net-(J1-Pin_7)*%
X147726300Y-96470900D03*
%TO.P,J1,8*%
%TO.N,Net-(J1-Pin_8)*%
X147726300Y-99010900D03*
%TO.P,J1,9*%
%TO.N,GNDREF*%
X145186300Y-96470900D03*
%TO.P,J1,10*%
X145186300Y-99010900D03*
%TD*%
D14*
%TO.P,C1,1*%
%TO.N,+5V*%
X122750000Y-86405000D03*
D15*
%TO.P,C1,2*%
%TO.N,GNDREF*%
X125250000Y-86405000D03*
%TD*%
D16*
%TO.P,J4,1*%
%TO.N,+5V*%
X126409700Y-95228400D03*
D17*
%TO.P,J4,2*%
%TO.N,GNDREF*%
X128949700Y-95228400D03*
%TD*%
D10*
%TO.P,J5,1*%
%TO.N,+3.3V*%
X139508500Y-74805900D03*
D11*
%TO.P,J5,2*%
%TO.N,button_1*%
X142048500Y-74805900D03*
%TO.P,J5,3*%
%TO.N,button_2*%
X144588500Y-74805900D03*
%TO.P,J5,4*%
%TO.N,button_3*%
X147128500Y-74805900D03*
%TO.P,J5,5*%
%TO.N,button_4*%
X149668500Y-74805900D03*
%TO.P,J5,6*%
%TO.N,GNDREF*%
X152208500Y-74805900D03*
%TD*%
D14*
%TO.P,C4,1*%
%TO.N,+3.3V*%
X129683800Y-75309700D03*
D15*
%TO.P,C4,2*%
%TO.N,GNDREF*%
X129683800Y-77809700D03*
%TD*%
D16*
%TO.P,J2,1*%
%TO.N,+3.3V*%
X135212700Y-84496900D03*
D17*
%TO.P,J2,2*%
%TO.N,RX433*%
X135212700Y-87036900D03*
%TO.P,J2,3*%
%TO.N,GNDREF*%
X135212700Y-89576900D03*
%TD*%
D18*
%TO.N,GNDREF*%
X157780700Y-88879900D03*
X145555600Y-93072500D03*
%TO.N,+3.3V*%
X159667000Y-90252100D03*
%TO.N,RX433*%
X142259600Y-84553100D03*
%TO.N,Net-(J1-Pin_6)*%
X150190900Y-94070800D03*
%TO.N,Net-(J1-Pin_1)*%
X154796100Y-78583200D03*
%TO.N,Net-(J1-Pin_3)*%
X152493300Y-79022700D03*
%TO.N,Net-(J1-Pin_2)*%
X150190900Y-78608900D03*
%TD*%
D19*
%TO.N,GNDREF*%
X158561400Y-92387700D02*
X157531400Y-91357700D01*
X156069500Y-74558100D02*
X156746500Y-74838700D01*
X155771200Y-74483200D02*
X156069500Y-74558100D01*
X157531400Y-89146500D02*
X157780700Y-88879900D01*
X161996300Y-94232700D02*
X161243300Y-94092700D01*
X160828700Y-93921000D02*
X158561400Y-92387700D01*
X158896100Y-79558300D02*
X158821200Y-79856600D01*
X153821000Y-74483200D02*
X155771200Y-74483200D01*
X157010200Y-74996800D02*
X158382500Y-76369100D01*
X145186300Y-96320900D02*
X145555600Y-93072500D01*
X157876000Y-82767900D02*
X157796300Y-83085200D01*
X158896100Y-77608100D02*
X158896100Y-79558300D01*
X156746500Y-74838700D02*
X157010200Y-74996800D01*
X161243300Y-94092700D02*
X160828700Y-93921000D01*
X157531400Y-91357700D02*
X157376300Y-90983300D01*
X157376300Y-89520900D02*
X157531400Y-89146500D01*
X158382500Y-76369100D02*
X158540600Y-76632800D01*
X158821200Y-79856600D02*
X157876000Y-82767900D01*
X158821200Y-77309800D02*
X158896100Y-77608100D01*
X157376300Y-90983300D02*
X157376300Y-89520900D01*
X152208500Y-74805900D02*
X153821000Y-74483200D01*
X145186300Y-96470900D02*
X145186300Y-96320900D01*
X157796300Y-83085200D02*
X157780700Y-88879900D01*
X158540600Y-76632800D02*
X158821200Y-77309800D01*
%TO.N,+3.3V*%
X159942400Y-83021700D02*
X160596300Y-82367000D01*
X159667000Y-90252100D02*
X159838500Y-89564800D01*
X159838500Y-89564800D02*
X159838500Y-88195000D01*
X159655900Y-87353800D02*
X159655900Y-85871600D01*
X159838500Y-88195000D02*
X159655900Y-87353800D01*
X161396300Y-82132700D02*
X161996300Y-81532700D01*
X159655900Y-85871600D02*
X159802000Y-83360600D01*
X159802000Y-83360600D02*
X159942400Y-83021700D01*
X160996300Y-82132700D02*
X161396300Y-82132700D01*
X160596300Y-82367000D02*
X160830600Y-82132700D01*
X160830600Y-82132700D02*
X160996300Y-82132700D01*
%TO.N,RX433*%
X135212700Y-87036900D02*
X136616800Y-86746900D01*
X136616800Y-86746900D02*
X142259600Y-84553100D01*
%TO.N,Net-(J1-Pin_6)*%
X148449400Y-101410900D02*
X147003200Y-101410900D01*
X144444700Y-90929000D02*
X144822500Y-90772500D01*
X150266300Y-99010900D02*
X150266300Y-99160900D01*
X149827400Y-100243500D02*
X148808900Y-101262000D01*
X148808900Y-101262000D02*
X148449400Y-101410900D01*
X142936300Y-99884000D02*
X142936300Y-98437800D01*
X143085200Y-100243500D02*
X142936300Y-99884000D01*
X142936300Y-98437800D02*
X142936300Y-95597800D01*
X142936300Y-95597800D02*
X143255600Y-92339400D01*
X150266300Y-99160900D02*
X149976300Y-99884000D01*
X144463200Y-101410900D02*
X144103700Y-101262000D01*
X146666500Y-90929000D02*
X150190900Y-94070800D01*
X146288700Y-90772500D02*
X146666500Y-90929000D01*
X143412100Y-91961600D02*
X144444700Y-90929000D01*
X143255600Y-92339400D02*
X143412100Y-91961600D01*
X147003200Y-101410900D02*
X144463200Y-101410900D01*
X149976300Y-99884000D02*
X149827400Y-100243500D01*
X144822500Y-90772500D02*
X146288700Y-90772500D01*
X144103700Y-101262000D02*
X143085200Y-100243500D01*
%TO.N,Net-(J1-Pin_1)*%
X154896300Y-95870900D02*
X154896300Y-95470900D01*
X154793300Y-79755800D02*
X154796100Y-78583200D01*
X154196300Y-82758800D02*
X154249300Y-82426700D01*
X154249300Y-82426700D02*
X154793300Y-79755800D01*
X154896300Y-95305200D02*
X154198300Y-92803300D01*
X155346300Y-96470900D02*
X154896300Y-95870900D01*
X153750100Y-89846500D02*
X153750100Y-87913300D01*
X153794800Y-91413000D02*
X153750100Y-89846500D01*
X154198300Y-92803300D02*
X153965200Y-92109100D01*
X153965200Y-92109100D02*
X153947000Y-92053100D01*
X153947000Y-92053100D02*
X153810400Y-91510600D01*
X153810400Y-91510600D02*
X153794800Y-91413000D01*
X154896300Y-95470900D02*
X154896300Y-95305200D01*
X153750100Y-87913300D02*
X154196300Y-82758800D01*
%TO.N,Net-(J1-Pin_3)*%
X152225300Y-92549200D02*
X152054500Y-91870500D01*
X152806300Y-96470900D02*
X152806300Y-96320900D01*
X152054500Y-91870500D02*
X152004100Y-91555200D01*
X152490900Y-79342000D02*
X152493300Y-79022700D01*
X151984900Y-90034800D02*
X151984900Y-87725000D01*
X152481600Y-93339600D02*
X152225300Y-92549200D01*
X152004100Y-91555200D02*
X151984900Y-90034800D01*
X151984900Y-87725000D02*
X152490900Y-79342000D01*
X152806300Y-96320900D02*
X152481600Y-93339600D01*
%TO.N,Net-(J1-Pin_2)*%
X156014400Y-82788500D02*
X156153400Y-82236300D01*
X155346300Y-99010900D02*
X155346300Y-98870900D01*
X157576800Y-98072000D02*
X157596300Y-98025000D01*
X156750400Y-98870900D02*
X156797400Y-98851400D01*
X155570300Y-87774300D02*
X155996300Y-82901600D01*
X155659600Y-91519600D02*
X155585600Y-91224900D01*
X156994800Y-79296100D02*
X156994800Y-77870300D01*
X157596300Y-98025000D02*
X157596300Y-96916800D01*
X153239200Y-76829400D02*
X152913400Y-76964300D01*
X151519200Y-77084000D02*
X150554600Y-78048600D01*
X157596300Y-96916800D02*
X157596300Y-94916800D01*
X156095400Y-92454700D02*
X155939200Y-92194100D01*
X155585600Y-91224900D02*
X155515400Y-89606100D01*
X156853700Y-77529700D02*
X155849600Y-76525600D01*
X155849600Y-76525600D02*
X155509000Y-76384500D01*
X155509000Y-76384500D02*
X154083200Y-76384500D01*
X152913400Y-76964300D02*
X151808300Y-76964300D01*
X156994800Y-77870300D02*
X156853700Y-77529700D01*
X155346300Y-98870900D02*
X156750400Y-98870900D01*
X157596300Y-94916800D02*
X157576800Y-94869800D01*
X154083200Y-76384500D02*
X153742600Y-76525600D01*
X150554600Y-78048600D02*
X150190900Y-78608900D01*
X155515400Y-88153700D02*
X155570300Y-87774300D01*
X155996300Y-82901600D02*
X156014400Y-82788500D01*
X155515400Y-89606100D02*
X155515400Y-88153700D01*
X155939200Y-92194100D02*
X155659600Y-91519600D01*
X156153400Y-82236300D02*
X156994800Y-79296100D01*
X156797400Y-98851400D02*
X157576800Y-98072000D01*
X157576800Y-94869800D02*
X156095400Y-92454700D01*
X153742600Y-76525600D02*
X153239200Y-76829400D01*
X151808300Y-76964300D02*
X151519200Y-77084000D01*
%TD*%
M02*
