M48
; DRILL file {KiCad 9.0.0} date 2025-07-29T16:06:20+0300
; FORMAT={-:-/ absolute / inch / decimal}
; #@! TF.CreationDate,2025-07-29T16:06:20+03:00
; #@! TF.GenerationSoftware,Kicad,Pcbnew,9.0.0
; #@! TF.FileFunction,Plated,1,2,PTH
FMAT,2
INCH
; #@! TA.AperFunction,Plated,PTH,ViaDrill
T1C0.0354
; #@! TA.AperFunction,Plated,PTH,ComponentDrill
T2C0.0394
%
G90
G05
T1
X5.6008Y-3.3289
X5.7305Y-3.6643
X5.913Y-3.0948
X5.913Y-3.7036
X6.0037Y-3.1111
X6.0943Y-3.0938
X6.2118Y-3.4992
X6.2861Y-3.5532
T2
X4.8327Y-3.4018
X4.9311Y-3.4018
X4.9768Y-3.7491
X5.0768Y-3.7491
X5.1057Y-2.9649
X5.1057Y-3.0634
X5.3233Y-3.3266
X5.3233Y-3.4266
X5.3233Y-3.5266
X5.4925Y-2.9451
X5.5925Y-2.9451
X5.6925Y-2.9451
X5.716Y-3.7981
X5.716Y-3.8981
X5.7925Y-2.9451
X5.816Y-3.7981
X5.816Y-3.8981
X5.8925Y-2.9451
X5.916Y-3.7981
X5.916Y-3.8981
X5.9925Y-2.9451
X6.016Y-3.7981
X6.016Y-3.8981
X6.116Y-3.7981
X6.116Y-3.8981
X6.3778Y-3.2099
X6.3778Y-3.3099
X6.3778Y-3.4099
X6.3778Y-3.5099
X6.3778Y-3.6099
X6.3778Y-3.7099
M30
